<?xml version="1.0" encoding="utf-8"?>
<!-- Generator: Adobe Illustrator 22.1.0, SVG Export Plug-In . SVG Version: 6.00 Build 0)  -->
<svg version="1.1" xmlns="http://www.w3.org/2000/svg" xmlns:xlink="http://www.w3.org/1999/xlink" x="0px" y="0px"
	 viewBox="0 0 43.9 42" style="enable-background:new 0 0 43.9 42;" xml:space="preserve">
<style type="text/css">
	.st0{display:none;}
	.st1{display:inline;}
	.st2{fill:#F05423;}
	.st3{fill:#84C441;}
	.st4{fill:#2DABE2;}
	.st5{fill:#F9BC15;}
</style>
<g id="Слой_2" class="st0">
	<g class="st1">
		<g>
			<path d="M5.9,11.5c0.9-0.7,4.4-0.2,5.6-0.3c2.7-0.1,5.4-0.1,8.1,0c5.7,0,11.4,0.1,17.1,0.3c0-4,0-8,0-12C23,0.1,9.6-3.2-4.1-3.2
				c-7.7,0-7.7,11.8,0,12c15.6,0.3,31.3,1,46.9,2.2c0-4,0-8,0-12c-4.8-0.1-9.6-0.3-14.4-0.7c0.5,3.9,1.1,7.9,1.6,11.8
				c4.4-1.2,8.4-1.5,12.9-1.1c-1-3.7-2-7.5-3-11.2C34.3,0.6,26-0.6,20-0.5C12.7-0.2,5.4,0-1.8,0.2c-7.7,0.2-7.8,12.1,0,12
				c9.7-0.1,19.4-0.2,29,1.2c0-3.9,0-7.7,0-11.6C19.8,3.1,12.4,4.4,5,5.6c-6.8,1.1-5,11.8,1.6,11.8c10.1,0,20.1,0,30.2,0
				c-0.5-3.9-1.1-7.9-1.6-11.8C29.1,7,22.1,6.5,15.8,6.7C9.1,7,2.5,7.2-4.2,7.4c-7.7,0.2-7.7,12.1,0,12c17.1-0.2,34.1-0.2,51.2,0
				c0-4,0-8,0-12C32.8,8.8,18.6,9.8,4.4,10.5c0,4,0,8,0,12c10.4-0.9,22.5-2.2,32.6,0.6c-0.5-3.7-1-7.3-1.4-11
				c-5.4,2.5-13.6,1.5-19.4,1.6C9.6,14,3,14.1-3.6,14c0,4,0,8,0,12c13.4-0.6,26.7-0.3,40.1,0.9c0-4,0-8,0-12
				C26,16,15.4,17.2,4.9,18.3c-7.5,0.8-7.9,12.1,0,12c7.1-0.1,14.2-0.1,21.3-0.2c3.2,0,6.4-0.1,9.7-0.1c3,0,7.3-0.9,10.2,0.1
				c-0.5-3.7-1-7.3-1.4-11c-1.9,1.3-7.3,0.5-9.6,0.5c-4.2,0-8.3,0-12.5,0.2c-3.6,0.1-7.3,0.4-10.9,1C7.7,21.3,3.9,23.1,0,23.4
				c-7.6,0.6-7.8,12,0,12c8.2,0,16.5,0,24.7,0c4,0,7.9,0,11.9,0c3.5,0,8.8-0.9,12.1,0.4c-0.5-3.7-1-7.3-1.4-11
				c-8.1,4.6-18.6,5.7-27.7,6.3c-8.9,0.5-18.3-0.8-27,1c-6.9,1.4-4.9,11.5,1.6,11.8c9.2,0.4,18.5,0.9,27.6,2.3c8.6,1.4,17,4,25.8,3
				c7.6-0.9,7.7-12.9,0-12c-8.9,1-17.7-1.9-26.4-3.1C12.1,33,3.1,32.4-5.9,32c0.5,3.9,1.1,7.9,1.6,11.8c4.4-0.9,9.3-0.3,13.8-0.3
				c5.2,0,10.3-0.2,15.5-0.7c9.6-1,19.8-2.7,28.3-7.5c4.8-2.7,3.2-9.2-1.4-11c-3.7-1.4-8.3-0.8-12.3-0.8c-4.3,0-8.6,0-12.8,0
				c-8.9,0-17.8,0-26.7-0.1c0,4,0,8,0,12c4.2-0.3,8-1.8,12.1-2.7c4.7-1,9.5-1.1,14.2-1.1c4.5-0.1,9,0,13.4-0.2
				c3.7-0.1,7.7,0.1,10.9-2c4.4-2.9,3.6-9.3-1.4-11c-3-1-6.4-0.6-9.5-0.5c-3.9,0-7.7,0.1-11.6,0.1c-7.7,0.1-15.5,0.2-23.2,0.2
				c0,4,0,8,0,12C15.4,29.2,26,28,36.5,26.9c7.7-0.8,7.8-11.3,0-12C23.2,13.7,9.8,13.4-3.6,14c-7.7,0.4-7.8,11.9,0,12
				c7.9,0.1,15.8-0.1,23.8-0.4c7.1-0.2,14.9-0.1,21.5-3.1c4.9-2.2,3.2-9.7-1.4-11c-11.3-3.1-24.3-2-35.8-1c-7.6,0.6-7.8,12.4,0,12
				c14.2-0.7,28.4-1.7,42.5-3.2c7.5-0.8,7.9-11.9,0-12c-17.1-0.1-34.1-0.1-51.2,0c0,4,0,8,0,12c7.3-0.2,14.6-0.5,21.9-0.7
				c6.8-0.3,14,0,20.7-1.5c6.7-1.5,5.1-11.8-1.6-11.8c-10.1,0-20.1,0-30.2,0c0.5,3.9,1.1,7.9,1.6,11.8c7.4-1.2,14.8-2.5,22.1-3.7
				c5.7-1,5.8-10.7,0-11.6C19.6,0.3,9,0.1-1.8,0.2c0,4,0,8,0,12c8.6-0.3,17.2-0.5,25.8-0.8c7.5-0.2,15.1,0.2,21.9-3.3
				c5.8-2.9,2.4-10.7-3-11.2C37.4-3.5,32-3,26.8-1.5c-6.7,1.9-5,11.3,1.6,11.8c4.8,0.4,9.6,0.6,14.4,0.7c7.8,0.2,7.6-11.4,0-12
				C27.2-2.2,11.5-2.9-4.1-3.2c0,4,0,8,0,12C9.6,8.8,23,12.1,36.7,11.5c7.7-0.3,7.7-11.8,0-12C29.1-0.7,21.5-0.9,14-0.8
				C8-0.7,2.3-0.8-2.5,3C-8.6,7.8,0,16.3,5.9,11.5L5.9,11.5z"/>
		</g>
	</g>
</g>
<g id="Layer_1">
	<g>
		<path id="path5058" class="st2" d="M20.9,20H0V0h20.9V20z"/>
		<path id="path5060" class="st3" d="M43.9,20H23V0h20.9V20z"/>
		<path id="path5062" class="st4" d="M20.9,42H0V22h20.9V42z"/>
		<path id="path5064" class="st5" d="M43.9,42H23V22h20.9V42z"/>
	</g>
</g>
</svg>
