<?xml version="1.0" encoding="utf-8"?>
<!-- Generator: Adobe Illustrator 22.1.0, SVG Export Plug-In . SVG Version: 6.00 Build 0)  -->
<svg version="1.1" xmlns="http://www.w3.org/2000/svg" xmlns:xlink="http://www.w3.org/1999/xlink" x="0px" y="0px"
	 viewBox="0 0 42.1 47" style="enable-background:new 0 0 42.1 47;" xml:space="preserve">
<style type="text/css">
	.st0{display:none;}
	.st1{display:inline;}
	.st2{fill:#A4C639;}
</style>
<g id="Слой_2" class="st0">
	<g class="st1">
		<g>
			<path d="M-8.5,3.1c13-0.4,26.1-0.2,39.1,0.7C30.1-0.1,29.6-4,29-8C20.2-6.7,11.4-5.4,2.5-4.2c-7.1,1-4.7,11.3,1.6,11.8
				c12.1,0.8,24.2,1,36.3,0.6c7.8-0.3,7.7-11.4,0-12c-10.3-0.7-20.7-0.7-31,0.1c-7.6,0.6-7.8,12,0,12c8.4,0,16.7,0,25.1,0.1
				C34,4.5,33.4,0.5,32.9-3.4C26-1.1,18.5-1.2,11.3-0.7c-7.5,0.5-15.1,1-22.6,1.4c-7.7,0.4-7.8,12.3,0,12c16.8-0.6,33.6-0.9,50.5-1
				c0-4,0-8,0-12C26,0.8,12.7,1.2-0.6,1c0,4,0,8,0,12c18.4-0.2,36.8-0.3,55,1.8c0-4,0-8,0-12C35.1,3.4,15.7,3.6-3.7,3.3
				c-7.7-0.1-7.7,11.8,0,12c17.7,0.4,35.5,0.7,53,3.8c0.5-3.9,1.1-7.9,1.6-11.8C34.6,7.7,18.3,8.1,2,8.5c-7.7,0.2-7.7,11.9,0,12
				c20.7,0.2,41.3,1.4,61.8,3.7c0-4,0-8,0-12c-21.8,0.5-43.6,0.7-65.3,0.4c-7.8-0.1-7.6,11.3,0,12c7.3,0.6,14.6,1.3,21.9,1.9
				c0-4,0-8,0-12C10.9,15.8,1.3,17-8.2,18.3c-7.4,1-8,11.7,0,12C5.2,30.8,18.6,30.7,32,30c7.7-0.4,7.8-11.9,0-12
				c-6.6-0.1-13,0.6-19.5,1.9c-7,1.4-4.8,11.3,1.6,11.8c8.7,0.6,17.4,0.6,26.1-0.2c7.6-0.7,7.8-12.4,0-12
				c-8.9,0.5-17.8,1.7-26.6,3.5C6.5,24.4,9,34,15.3,34.7c5.6,0.6,11.2,0.6,16.8-0.1c-0.5-3.9-1.1-7.9-1.6-11.8
				c-8.6,2.3-17.3,4.4-26.1,6.2c1.1,3.9,2.1,7.7,3.2,11.6c12.2-3.9,24.6-5.4,37.4-4.5c0-4,0-8,0-12c-20,1-40,1.4-60,1.3
				c0,4,0,8,0,12c17.5-1.6,35-1.6,52.5,0c0-4,0-8,0-12c-9.9,0.6-19.8,1.2-29.7,1.9c-6.3,0.4-8.7,10.7-1.6,11.8
				c15.1,2.4,30.3,4.8,45.4,7.2c0.5-3.9,1.1-7.9,1.6-11.8c-19.5-0.4-39-0.8-58.5-1.2c0,4,0,8,0,12c13.4-0.2,26.8,0.1,40.2,0.7
				c0-4,0-8,0-12c-4.1,0.4-8.2,0.8-12.3,1.2c-6.2,0.6-8.8,10.6-1.6,11.8c7.4,1.3,14.7,2.5,22.1,3.8c0.5-3.9,1.1-7.9,1.6-11.8
				c-17.4-0.1-34.9-0.2-52.3-0.3c0,4,0,8,0,12c9.6,0,19.2,0,28.9,0c0-4,0-8,0-12c-10.4,0.9-20.7,1.9-31.1,2.8
				c-7.6,0.7-7.7,12.7,0,12c10.4-0.9,20.7-1.9,31.1-2.8c7.6-0.7,7.9-12,0-12c-9.6,0-19.2,0-28.9,0c-7.7,0-7.7,11.9,0,12
				c17.4,0.1,34.9,0.2,52.3,0.3c6.6,0,8.4-10.6,1.6-11.8c-7.4-1.3-14.7-2.5-22.1-3.8c-0.5,3.9-1.1,7.9-1.6,11.8
				c4.1-0.4,8.2-0.8,12.3-1.2c7.6-0.7,7.8-11.6,0-12c-13.4-0.6-26.8-0.8-40.2-0.7c-7.7,0.1-7.7,11.8,0,12c19.5,0.4,39,0.8,58.5,1.2
				c6.6,0.1,8.4-10.7,1.6-11.8c-15.1-2.4-30.3-4.8-45.4-7.2c-0.5,3.9-1.1,7.9-1.6,11.8c9.9-0.6,19.8-1.2,29.7-1.9
				c7.8-0.5,7.7-11.3,0-12c-17.5-1.6-35-1.6-52.5,0c-7.6,0.7-7.9,11.9,0,12c20,0.2,40-0.2,60-1.3c7.8-0.4,7.7-11.5,0-12
				c-13.7-1-27.5,0.7-40.6,5C-3,31.4,0.1,42.1,7.6,40.6c8.8-1.8,17.4-3.8,26.1-6.2c6.3-1.7,5.3-12.6-1.6-11.8
				c-5.6,0.6-11.2,0.7-16.8,0.1c0.5,3.9,1.1,7.9,1.6,11.8c7.7-1.6,15.5-2.6,23.4-3.1c0-4,0-8,0-12c-8.7,0.8-17.4,0.9-26.1,0.2
				c0.5,3.9,1.1,7.9,1.6,11.8c5.4-1.1,10.8-1.6,16.3-1.5c0-4,0-8,0-12c-13.4,0.7-26.8,0.8-40.2,0.3c0,4,0,8,0,12
				c9.5-1.2,19.1-2.5,28.6-3.7c7.6-1,7.9-11.3,0-12c-7.3-0.6-14.6-1.3-21.9-1.9c0,4,0,8,0,12c21.8,0.2,43.6,0.1,65.3-0.4
				c7.9-0.2,7.5-11.2,0-12C43.3,9.9,22.7,8.7,2,8.5c0,4,0,8,0,12c16.3-0.4,32.6-0.8,48.8-1.2c6.5-0.2,8.5-10.6,1.6-11.8
				C33.9,4.2,15.1,3.7-3.7,3.3c0,4,0,8,0,12c19.4,0.3,38.8,0.1,58.2-0.4c7.9-0.2,7.5-11.1,0-12c-18.3-2.1-36.7-2-55-1.8
				c-7.7,0.1-7.7,11.9,0,12c13.3,0.2,26.5-0.3,39.8-1.3c7.6-0.6,7.8-12,0-12c-16.8,0-33.6,0.4-50.5,1c0,4,0,8,0,12
				c8.2-0.5,16.3-1,24.5-1.5c7.6-0.5,15.5-0.6,22.9-3c6.3-2.1,5.4-11.8-1.6-11.8c-8.4,0-16.7,0-25.1-0.1c0,4,0,8,0,12
				c10.3-0.8,20.7-0.9,31-0.1c0-4,0-8,0-12C28.3-3.3,16.2-3.5,4.1-4.4C4.6-0.4,5.2,3.5,5.7,7.4c8.8-1.3,17.7-2.5,26.5-3.8
				c7.1-1,4.7-11.3-1.6-11.8c-13-0.9-26-1.1-39.1-0.7C-16.2-8.6-16.2,3.4-8.5,3.1L-8.5,3.1z"/>
		</g>
	</g>
</g>
<g id="Layer_1">
	<path class="st2" d="M34.1,14H7.9c0,0.1,0,0.2,0,0.3v18.8c0,1.9,1.5,3.5,3.3,3.6v7.4c0,1.6,1.3,2.9,2.9,2.9c1.6,0,2.9-1.3,2.9-2.9
		v-7.4h8.1v7.4c0,1.6,1.3,2.9,2.9,2.9c1.6,0,2.9-1.3,2.9-2.9v-7.4c1.9-0.1,3.3-1.7,3.3-3.6V14.3C34.2,14.2,34.2,14.1,34.1,14z"/>
	<path id="c-4-9-2-9-2-9" class="st2" d="M2.9,15.7L2.9,15.7c1.6,0,2.9,1.3,2.9,2.9v12.4c0,1.6-1.3,2.9-2.9,2.9l0,0
		c-1.6,0-2.9-1.3-2.9-2.9V18.6C0,17,1.3,15.7,2.9,15.7z"/>
	<path id="c-4-1-7-3-8-4" class="st2" d="M39.2,15.7L39.2,15.7c1.6,0,2.9,1.3,2.9,2.9v12.4c0,1.6-1.3,2.9-2.9,2.9l0,0
		c-1.6,0-2.9-1.3-2.9-2.9V18.6C36.3,17,37.6,15.7,39.2,15.7z"/>
	<path class="st2" d="M8,12h26c0-2.8-1.2-5.3-3.2-7.3l2.4-4.2c0.1-0.1,0-0.3-0.1-0.4c-0.1-0.1-0.3,0-0.4,0.1l-2.4,4.1
		c-2.1-1.9-6.2-3.4-9.4-3.4l0,0c-3,0-7.3,1.5-9.4,3.4L9.3,0.2C9.2,0,9,0,8.9,0C8.7,0.1,8.7,0.3,8.8,0.5l2.4,4.2
		C9.3,6.6,8.1,9.2,8,12z M25.3,6.8c0-0.8,0.7-1.5,1.5-1.5c0.8,0,1.5,0.6,1.5,1.5c0,0,0,0,0,0c0,0.8-0.7,1.5-1.5,1.5
		C26,8.3,25.3,7.6,25.3,6.8C25.3,6.8,25.3,6.8,25.3,6.8z M14.2,6.8c0-0.8,0.7-1.5,1.5-1.5c0.8,0,1.5,0.6,1.5,1.5c0,0,0,0,0,0
		c0,0.8-0.7,1.5-1.5,1.5C14.9,8.3,14.2,7.6,14.2,6.8C14.2,6.8,14.2,6.8,14.2,6.8z"/>
</g>
</svg>
