<?xml version="1.0" encoding="utf-8"?>
<!-- Generator: Adobe Illustrator 22.1.0, SVG Export Plug-In . SVG Version: 6.00 Build 0)  -->
<svg version="1.1" xmlns="http://www.w3.org/2000/svg" xmlns:xlink="http://www.w3.org/1999/xlink" x="0px" y="0px"
	 viewBox="0 0 146.3 40.4" style="enable-background:new 0 0 146.3 40.4;" xml:space="preserve">
<style type="text/css">
	.st0{display:none;}
	.st1{display:inline;}
	.st2{fill:#FFFFFF;}
</style>
<g id="Слой_2" class="st0">
	<g class="st1">
		<g>
			<path d="M-15.3,18.6c50.9,0.5,101.8,1,152.7,1.5c0-4,0-8,0-12C77.2,10,17.3,14.6-42.3,21.9c0.5,3.9,1.1,7.9,1.6,11.8
				C20.3,20.3,83,21,145.1,21.7c0-4,0-8,0-12c-47.3-0.2-94.6,1-141.8,3.7c0.5,3.9,1.1,7.9,1.6,11.8c27.1-6.9,54.8-9.7,82.7-8.5
				c7.7,0.3,7.7-11.6,0-12C62,3.5,36.4,3.2,10.8,3.8c-7.7,0.2-7.7,12.1,0,12c65.7-0.5,131.5-0.3,197.2,0.8
				c-0.5-3.9-1.1-7.9-1.6-11.8c-36.5,5.7-73.9,3.8-110.7,3.2C57.5,7.5,19.3,6.6-18.9,5.5C-40.4,4.8-62,4.1-83.6,3.3
				c0.5,3.9,1.1,7.9,1.6,11.8C-38.3,1.5,7.4-1.1,52.8-3.6c7.7-0.4,7.7-11.6,0-12C22.2-17.2-8.5-16.2-39-12.4c-7.4,0.9-8,12,0,12
				c75.4,0,150.9,0.1,226.3,0.1c-1.7-3-3.5-6-5.2-9c-2.8,3.8-7.8,5.1-12.2,6.1c-5.8,1.2-11.7,1.9-17.5,2.8c-13.5,2-27,3.8-40.6,5.5
				c-26.5,3.4-53.1,6.3-79.7,8.7c-7.6,0.7-7.9,12,0,12c37.9-0.2,75.8-0.9,113.7-2.3c-0.5-3.9-1.1-7.9-1.6-11.8
				C110,22.8,74.6,28.6,38.7,29.1c0,4,0,8,0,12C93.5,35.8,148.2,30.5,203,25.3c-0.5-3.9-1.1-7.9-1.6-11.8
				c-50.3,8.6-100.6,17.2-150.9,25.8c-6.9,1.2-4.9,11.6,1.6,11.8c61,1.9,122,3.8,183,5.7c0-4,0-8,0-12
				c-42.6,3.6-85.2,7.2-127.8,10.8c0.5,3.9,1.1,7.9,1.6,11.8c18.4-2.9,36.9-5.8,55.3-8.7c7.2-1.1,4.6-11.2-1.6-11.8
				c-12.3-1.2-24.6-1.5-37-1.1c-7.7,0.3-7.7,12.3,0,12c12.4-0.5,24.7-0.1,37,1.1c-0.5-3.9-1.1-7.9-1.6-11.8
				c-18.4,2.9-36.9,5.8-55.3,8.7c-6.6,1-5.1,12.4,1.6,11.8c42.6-3.6,85.2-7.2,127.8-10.8c7.6-0.6,7.8-11.8,0-12
				c-61-1.9-122-3.8-183-5.7c0.5,3.9,1.1,7.9,1.6,11.8c50.3-8.6,100.6-17.2,150.9-25.8c6.6-1.1,5.1-12.4-1.6-11.8
				C148.2,18.5,93.5,23.8,38.7,29.1c-7.5,0.7-7.9,12.1,0,12c36.9-0.5,73.5-6.4,108.7-17.7c6.2-2,5.4-12-1.6-11.8
				c-37.9,1.3-75.8,2.1-113.7,2.3c0,4,0,8,0,12c29.2-2.7,58.4-5.9,87.6-9.8c14.3-1.9,28.5-3.8,42.8-6c11.4-1.7,22.8-3.4,30.1-13.3
				c2.8-3.8-1-9-5.2-9c-75.4,0-150.9-0.1-226.3-0.1c0,4,0,8,0,12c30.5-3.8,61.1-4.9,91.8-3.2c0-4,0-8,0-12
				c-46.4,2.5-93.3,5.2-138,19.1c-6.5,2-5.2,11.5,1.6,11.8c76.7,2.9,153.5,5.4,230.2,5.3c21,0,42-1,62.9-4.2
				c6.8-1.1,4.9-11.7-1.6-11.8C142.2,3.5,76.5,3.3,10.8,3.8c0,4,0,8,0,12c25.6-0.7,51.2-0.3,76.8,0.9c0-4,0-8,0-12
				C58.7,3.5,29.7,6.6,1.7,13.7c-6.4,1.6-5.3,12.2,1.6,11.8c47.2-2.7,94.5-4,141.8-3.7c7.7,0,7.7-11.9,0-12
				C81.9,9,18.1,8.5-43.9,22.1c-6.5,1.4-5.2,12.6,1.6,11.8C17.3,26.6,77.2,22,137.3,20.1c7.7-0.2,7.8-11.9,0-12
				C86.4,7.6,35.5,7.1-15.3,6.6C-23.1,6.5-23.1,18.5-15.3,18.6L-15.3,18.6z"/>
		</g>
	</g>
</g>
<g id="Layer_1">
	<g>
		<path class="st2" d="M71.9,18.7c0-0.7,0.6-1.3,1.3-1.3h7.2c5.1,0,8.4,2.7,8.4,7.1v0.1c0,4.9-4.1,7.4-8.9,7.4h-5.5v6.8
			c0,0.7-0.6,1.3-1.3,1.3c-0.7,0-1.3-0.6-1.3-1.3L71.9,18.7L71.9,18.7z M80,29.6c3.7,0,6.2-2,6.2-5v-0.1c0-3.2-2.4-4.9-6.1-4.9h-5.7
			v9.9L80,29.6L80,29.6z"/>
		<path class="st2" d="M93.6,18.5c0-0.7,0.6-1.3,1.3-1.3c0.7,0,1.3,0.6,1.3,1.3v20.3c0,0.7-0.6,1.3-1.3,1.3c-0.7,0-1.3-0.6-1.3-1.3
			V18.5z"/>
		<path class="st2" d="M102.7,18.5c0-0.7,0.6-1.3,1.3-1.3h0.4c0.6,0,0.9,0.3,1.3,0.7l13.7,17.4v-17c0-0.7,0.5-1.3,1.3-1.3
			c0.7,0,1.2,0.6,1.2,1.3v20.3c0,0.7-0.5,1.2-1.2,1.2h-0.1c-0.5,0-0.9-0.3-1.3-0.8l-14-17.9v17.4c0,0.7-0.5,1.3-1.3,1.3
			c-0.7,0-1.2-0.6-1.2-1.3L102.7,18.5L102.7,18.5z"/>
		<path class="st2" d="M128.2,18.5c0-0.7,0.6-1.3,1.3-1.3c0.7,0,1.3,0.6,1.3,1.3v12.3l12.8-13.2c0.3-0.3,0.6-0.5,1-0.5
			c0.7,0,1.2,0.6,1.2,1.3c0,0.4-0.2,0.6-0.4,0.9l-8,7.9l8.6,10.6c0.2,0.3,0.4,0.5,0.4,0.9c0,0.7-0.6,1.3-1.3,1.3
			c-0.5,0-0.8-0.3-1-0.6L135.6,29l-4.9,4.9v4.9c0,0.7-0.6,1.3-1.3,1.3c-0.7,0-1.3-0.6-1.3-1.3L128.2,18.5L128.2,18.5z"/>
	</g>
	<path class="st2" d="M60.5,28.3"/>
	<path class="st2" d="M60.5,28c0,0-5.2-21.4-5.2-21.4C54.9,4.3,52.7,0,46.7,0c-0.8,0-1.5,0.7-1.5,1.5S45.9,3,46.7,3
		c4.9,0,5.6,3.7,5.6,4.1l4.8,19.7H55c-0.7-5.9-5.8-10.5-11.9-10.5s-11.2,4.6-11.9,10.5h-1.8c-0.7-5.9-5.8-10.5-11.9-10.5
		S6.2,20.9,5.5,26.8H3.4L8.2,7.1C8.3,6.7,9,3,13.8,3c0.8,0,1.5-0.7,1.5-1.5S14.7,0,13.8,0c-6,0-8.2,4.3-8.6,6.7
		c0,0-5.2,21.4-5.2,21.4c-0.3,1.1,0.5,1.8,1.4,1.8c0,0,0,0,0,0h4c0.7,5.9,5.8,10.5,11.9,10.5s11.2-4.6,11.9-10.5h1.8
		c0.7,5.9,5.8,10.5,11.9,10.5S54.3,35.8,55,29.8h4c0,0,0,0,0,0C59.9,29.8,60.7,29.1,60.5,28z M26.3,29.8c-0.7,4.3-4.4,7.5-8.9,7.5
		s-8.2-3.3-8.9-7.5c-0.1-0.5-0.1-1-0.1-1.5c0-0.5,0.1-1,0.1-1.5c0.7-4.3,4.4-7.5,8.9-7.5s8.2,3.3,8.9,7.5c0.1,0.5,0.1,1,0.1,1.5
		C26.5,28.9,26.4,29.4,26.3,29.8z M52,29.8c-0.7,4.3-4.4,7.5-8.9,7.5c-4.5,0-8.2-3.3-8.9-7.5c-0.1-0.5-0.1-1-0.1-1.5
		c0-0.5,0.1-1,0.1-1.5c0.7-4.3,4.4-7.5,8.9-7.5c4.5,0,8.2,3.3,8.9,7.5c0.1,0.5,0.1,1,0.1,1.5C52.1,28.9,52.1,29.4,52,29.8z"/>
</g>
</svg>
