<?xml version="1.0" encoding="utf-8"?>
<!-- Generator: Adobe Illustrator 22.1.0, SVG Export Plug-In . SVG Version: 6.00 Build 0)  -->
<svg version="1.1" xmlns="http://www.w3.org/2000/svg" xmlns:xlink="http://www.w3.org/1999/xlink" x="0px" y="0px"
	 viewBox="0 0 46.2 56.8" style="enable-background:new 0 0 46.2 56.8;" xml:space="preserve">
<style type="text/css">
	.st0{display:none;}
	.st1{display:inline;}
	.st2{fill:#FFFFFF;}
</style>
<g id="Слой_2" class="st0">
	<g class="st1">
		<g>
			<path d="M17,4.9c-4.2,0.6-8.4-0.2-12.2-2c-1,3.7-2,7.5-3,11.2c15.3,0.3,30.5-0.5,45.7-2.3c7.4-0.9,7.9-12.2,0-12
				C35,0.1,22.6-0.2,10.2-1.1c0,4,0,8,0,12c10.8-0.1,21.5-0.1,32.3-0.2c8-0.1,7.4-11,0-12C32.3-2.7,22.2-2.4,12-0.9
				c-7.6,1.1-4.4,12.7,3.2,11.6c9.1-1.3,18.3-1.2,27.3,0c0-4,0-8,0-12C31.8-1.2,21-1.2,10.2-1.1c-7.8,0.1-7.6,11.4,0,12
				c12.4,0.9,24.8,1.2,37.2,0.8c0-4,0-8,0-12C32.3,1.6,17,2.3,1.7,2.1C-4,2-6.7,10.6-1.3,13.2c7,3.4,13.8,4.3,21.4,3.2
				C27.8,15.4,24.5,3.8,17,4.9L17,4.9z"/>
		</g>
	</g>
	<g class="st1">
		<g>
			<path d="M6,15.2c0-0.3-0.1-0.6-0.1-0.8c-0.2,1.5-0.4,3.1-0.6,4.6c-0.4,0.3-0.9,0.7-1.3,1c0.8-0.1,1.6-0.2,2.4-0.2
				c1.6-0.2,3.3-0.3,4.9-0.4c3.3-0.3,6.6-0.6,9.9-0.9c7.6-0.7,7.8-12.2,0-12c-9,0.3-17.5-1.1-26-4c1.5,1.9,2.9,3.9,4.4,5.8
				c0.1-0.4,0.1-0.8,0.2-1.2c-0.6,1.4-1.2,2.8-1.8,4.2c1.7-2.1,6.6-2.5,9.2-3.1c3.3-0.7,6.6-1.3,9.9-1.6C24,6,31,6.1,37.9,7
				c1.6,0.2,3.8,1.2,5.3,0.9C43.8,8,44.4,8.2,45,8.3c0.3-2.5,0-3.3-1-2.4c-0.5,0-1.9,0.9-2.5,1.1c-1.2,0.4-2.4,0.6-3.6,0.7
				c-7.2,1-14.5,1.4-21.7,2.1c-7.5,0.7-7.9,11.9,0,12c9,0.1,17.9,0.1,26.9,0.2c-0.5-3.9-1.1-7.9-1.6-11.8c-11.4,2-22.8,4-34.2,6
				c-7,1.2-4.8,11.4,1.6,11.8c8.1,0.5,16.2,0.6,24.3,0.3c-0.5-3.9-1.1-7.9-1.6-11.8c-9,2-18,3.3-27.2,3.8c0,4,0,8,0,12
				c15.1-1.2,30.2-2.1,45.4-2.5c0-4,0-8,0-12C33.7,19.9,17.5,22,1.3,24c-7.4,1-8,12.2,0,12c12.8-0.3,25.7-0.6,38.5-0.9
				c-0.5-3.9-1.1-7.9-1.6-11.8C28.7,25.9,19,28,9.3,29.7c-6.7,1.2-5.1,11.9,1.6,11.8c7.9-0.2,15.8-1,23.6-2.5
				c-1.1-3.9-2.1-7.7-3.2-11.6c-4.9,1.6-9.9,3.3-14.8,4.9c-6.5,2.2-5.2,11.3,1.6,11.8c13,0.9,26,0.8,38.9-0.4c7.6-0.7,7.9-11.8,0-12
				c-21.1-0.5-42.1-0.5-63.2,0c0,4,0,8,0,12c19.6-2.1,39.3-3.3,59-3.7c0-4,0-8,0-12c-9.7,1.1-19.4,2.6-28.9,4.7
				c-7.1,1.5-4.7,11.2,1.6,11.8c8.2,0.8,16.4,1.4,24.7,1.6c0-4,0-8,0-12c-7.6,0.9-15,2.5-22.1,5.3c-4.8,1.9-6,7.9-1.4,11
				c7.1,4.7,14.9,7.3,23.4,8.2c0-4,0-8,0-12c-18.1,1-36.1,0.6-54.2,0.2c-7.8-0.2-7.6,11.4,0,12c11.8,0.9,23.5,1.7,35.3,2.6
				c0-4,0-8,0-12c-3.6,0-7.2-0.1-10.8-0.1c-7.8-0.1-7.7,11.6,0,12c5.4,0.3,10.8,0.1,16.3-0.5c6.1-0.7,8.9-10.5,1.6-11.8
				C26.4,47,14.6,45.5,2.8,44.8c0,4,0,8,0,12c8.2-0.7,16.5-1.4,24.7-2.1c6.5-0.6,8.4-9.8,1.6-11.8c-9.1-2.7-18.4-4.4-27.9-5.4
				c0,4,0,8,0,12c6.9-0.6,13.9-0.6,20.7,0.3c0.5-3.9,1.1-7.9,1.6-11.8C11.4,39.1-0.8,39.8-13,40c-7.9,0.2-7.6,11.3,0,12
				c6.5,0.6,13.1,0.9,19.6,0.9c7.7-0.1,7.7-12,0-12c-2.2,0-4.3,0-6.5,0c-7.7,0-7.7,12,0,12c2.2,0,4.3,0,6.5,0c0-4,0-8,0-12
				C0.1,40.9-6.5,40.6-13,40c0,4,0,8,0,12c12.2-0.2,24.4-0.9,36.5-1.9c6.2-0.5,8.8-10.8,1.6-11.8c-8-1.1-15.9-1.5-23.9-0.8
				c-7.7,0.7-7.7,11.2,0,12c8.4,0.8,16.6,2.5,24.7,4.9c0.5-3.9,1.1-7.9,1.6-11.8c-8.2,0.7-16.5,1.4-24.7,2.1c-7.7,0.7-7.8,11.5,0,12
				c10.8,0.7,21.5,1.9,32.1,3.8c0.5-3.9,1.1-7.9,1.6-11.8c-5.4,0.6-10.8,0.8-16.3,0.5c0,4,0,8,0,12c3.6,0,7.2,0.1,10.8,0.1
				c7.8,0.1,7.6-11.4,0-12c-11.8-0.9-23.5-1.7-35.3-2.6c0,4,0,8,0,12C13.9,59.2,32,59.6,50,58.6c7.9-0.4,7.6-11.2,0-12
				c-6.3-0.7-12-3.1-17.3-6.6c-0.5,3.7-1,7.3-1.4,11c6.1-2.4,12.4-4.2,18.9-4.9c7.5-0.9,7.9-11.8,0-12c-8.3-0.2-16.5-0.8-24.7-1.6
				c0.5,3.9,1.1,7.9,1.6,11.8c8.5-1.8,17.1-3.3,25.8-4.3c7.5-0.8,7.9-12.2,0-12c-19.7,0.4-39.4,1.6-59,3.7c-7.5,0.8-7.9,12.2,0,12
				c21.1-0.5,42.1-0.5,63.2,0c0-4,0-8,0-12c-13,1.2-25.9,1.3-38.9,0.4c0.5,3.9,1.1,7.9,1.6,11.8c4.9-1.6,9.9-3.3,14.8-4.9
				c7.4-2.5,4.4-13-3.2-11.6c-6.8,1.3-13.5,2-20.4,2.1c0.5,3.9,1.1,7.9,1.6,11.8c9.7-1.7,19.3-3.9,28.8-6.4c6.5-1.7,5.3-12-1.6-11.8
				C26.9,23.4,14.1,23.7,1.3,24c0,4,0,8,0,12c16.2-2.1,32.4-4.2,48.6-6.3c7.4-1,7.9-12.2,0-12c-15.2,0.5-30.3,1.3-45.4,2.5
				c-7.6,0.6-7.8,12.4,0,12c10.2-0.6,20.4-2,30.4-4.2c6.6-1.5,5.2-12-1.6-11.8C25.1,16.6,17,16.4,8.9,16c0.5,3.9,1.1,7.9,1.6,11.8
				c11.4-2,22.8-4,34.2-6c6.8-1.2,5-11.7-1.6-11.8c-9-0.1-17.9-0.1-26.9-0.2c0,4,0,8,0,12c6.2-0.6,12.4-1.2,18.6-1.8
				c4.7-0.5,9.5-0.8,13.8-3c9-4.5,11.3-16.8,0.2-20.2C38.1-6.4,25.5-6.4,14.4-5.1C5.3-4-11-3-12.5,8.3c-0.4,2.7,2.1,5,4.4,5.8
				c9.4,3.3,19.3,4.8,29.2,4.5c0-4,0-8,0-12C14.7,7.1,7.5,6.9,1.2,8.4c-5.1,1.2-7.6,5-6.8,10C-4.4,26,7.2,22.8,6,15.2L6,15.2z"/>
		</g>
	</g>
	<g class="st1">
		<g>
			<path d="M3.1,26.3c-2.9-2.6-4.3-5.9-3.6-9.8c-3.7,0.5-7.3,1-11,1.4c1.4,2.8-0.3,6.8-0.8,9.7c-0.6,3.4-0.8,6.8-0.5,10.2
				c0.6,6,2.5,13.7,7.5,17.6c2.4,1.8,5.2,1.5,7.8,2.8c2.3,1.2,3.9,3.7,5.8,5.3c5,4.1,11.2,5.3,17.5,4.9c6.4-0.4,14.1-0.7,20.2-2.9
				c6.3-2.2,8.1-8,9.1-14c1.2-6.7,1-12.7-1.7-19c-2.6-6.1-5.1-12.2-0.3-18.2c4.8-6-3.7-14.5-8.5-8.5c-7.4,9.3-7.6,19.3-2.8,29.8
				c2.4,5.4,2.8,11.1,0.9,16.8c-0.9,2.8-3.3,2.2-6.1,2.6c-3,0.4-6.1,0.9-9.1,1.1c-5.7,0.5-9.5,0-13.6-4.1c-1.6-1.6-3.3-3.2-5.3-4.4
				c-1-0.6-2.1-1.1-3.2-1.4c-0.8-0.2-2.8-0.1-3.5-0.7c-1.7-1.4-2.3-5.7-2.6-7.8c-0.5-3.2-0.1-6.4,0.6-9.6c1.2-5.9,1.9-11-0.9-16.5
				c-2.3-4.5-9.9-3.6-11,1.4c-1.6,8,0.5,15.9,6.6,21.4C0.3,40,8.8,31.6,3.1,26.3L3.1,26.3z"/>
		</g>
	</g>
</g>
<g id="Layer_1">
	<path class="st2" d="M38.6,30.1c0.1,8.6,7.5,11.4,7.6,11.5c-0.1,0.2-1.2,4.1-3.9,8.1c-2.4,3.5-4.8,6.9-8.7,7
		c-3.8,0.1-5-2.3-9.4-2.3c-4.3,0-5.7,2.2-9.3,2.3c-3.7,0.1-6.6-3.7-9-7.2c-4.9-7-8.6-19.9-3.6-28.6c2.5-4.3,6.9-7,11.7-7.1
		c3.7-0.1,7.1,2.5,9.4,2.5c2.2,0,6.4-3,10.9-2.6c1.9,0.1,7,0.7,10.4,5.6C44.5,19.5,38.5,23,38.6,30.1 M31.5,9.1c2-2.4,3.3-5.7,3-9.1
		c-2.9,0.1-6.3,1.9-8.4,4.3c-1.8,2.1-3.4,5.5-3,8.8C26.2,13.3,29.5,11.5,31.5,9.1"/>
</g>
</svg>
