<?xml version="1.0" encoding="utf-8"?>
<!-- Generator: Adobe Illustrator 22.1.0, SVG Export Plug-In . SVG Version: 6.00 Build 0)  -->
<svg version="1.1" xmlns="http://www.w3.org/2000/svg" xmlns:xlink="http://www.w3.org/1999/xlink" x="0px" y="0px"
	 viewBox="0 0 74.4 22.9" style="enable-background:new 0 0 74.4 22.9;" xml:space="preserve">
<style type="text/css">
	.st0{display:none;}
	.st1{display:inline;}
	.st2{fill:#FFFFFF;}
</style>
<g id="Слой_2" class="st0">
	<g class="st1">
		<g>
			<path d="M32.3,22.4c10.2-3.4,20.6-5.1,31.3-4.9c0-4,0-8,0-12C45,7.8,26.3,7,8,3c0.9,3.3,1.8,6.7,2.6,10c1.8-2.2,7.8-1.3,10.7-1.4
				c4.5-0.1,8.9-0.2,13.4-0.1c8.9,0,17.9,0.4,26.8,1c0-4,0-8,0-12C43.8,1.7,26.3-0.7,8.9-4.2C8.4-0.3,7.8,3.7,7.3,7.6
				c22.6-1.3,45.2-0.1,67.6,3.7c0.5-3.9,1.1-7.9,1.6-11.8C63.9,0.7,51.4,2.5,39,5c-7.2,1.4-4.6,11.1,1.6,11.8
				c12.6,1.5,25.3,3,37.8,5.3c0-3.9,0-7.7,0-11.6c-11.1,2.2-22.4,2.8-33.7,1.9c0,4,0,8,0,12C54.9,23,65.1,23,75.4,24.2
				c-1.4-3.4-2.8-6.8-4.2-10.2c-1,0.9-3.9,0.4-5,0.4c-2.6,0-5.2-0.1-7.8-0.1c-4.5-0.1-9-0.3-13.6-0.5c-9.7-0.5-19.4-1.3-29-2.4
				c0,4,0,8,0,12c7.7-0.5,15.3-0.5,23,0.1c0-4,0-8,0-12c-6.4,0.8-12.8,1.2-19.2,1.2c-2.4,0-6.5-1.1-8.7-0.3
				c-2.2-0.4-1.8,0.8,1.1,3.5c0.3-0.4,0.7-0.9,1-1.3c1.2-0.8,2.2-2.9,3.1-4c2.5-3.3,2.3-9-2.6-10c-3-0.6-5.5-1.7-8.1-3.4
				c-4.1-2.7-8.7,0.9-9,5.2c-0.5,7.8-3.9,23.4,7.3,25.2c7.6,1.2,10.8-10.4,3.2-11.6c1.4,0.2,0,1.4,0.8-0.5c0.5-1.3,0.1-3.3,0.2-4.7
				C8,7.7,8.2,4.9,8.4,2.1c-3,1.7-6,3.5-9,5.2c3.4,2.2,7,3.7,10.9,4.6c-0.9-3.3-1.8-6.7-2.6-10C5,5.3,0.5,9.4-0.2,13.9
				c-0.7,4.5,2.1,8.2,6.3,9.6c4.5,1.5,9.9,1.1,14.5,1.1c6.1,0,12.2-0.4,18.3-1.2c7.5-0.9,7.9-11.4,0-12c-7.7-0.6-15.3-0.6-23-0.1
				c-7.8,0.5-7.6,11.2,0,12c11.6,1.3,23.2,2.2,34.8,2.7c5.5,0.2,11,0.4,16.5,0.4c4.8,0,8.9-0.6,12.5-3.9c4.2-3.9,0.5-9.7-4.2-10.2
				C65.1,11,54.9,11,44.7,12.4c-7.5,1-7.9,11.4,0,12c12.4,1,24.7,0.1,36.9-2.3c5.7-1.1,5.8-10.5,0-11.6C68,8,54.3,6.4,40.6,4.7
				c0.5,3.9,1.1,7.9,1.6,11.8c11.3-2.3,22.8-4,34.3-5.1c6.2-0.6,8.8-10.6,1.6-11.8C54.7-4.3,31-5.8,7.3-4.4C0.9-4-1.3,6,5.7,7.4
				c18.4,3.7,37,6.4,55.8,5.1c7.7-0.6,7.7-11.5,0-12C50.7-0.2,39.8-0.6,29-0.5c-8,0.1-21.1-1.9-26.8,5c-2.7,3.2-2.1,9,2.6,10
				c19.4,4.3,39.2,5.3,58.9,2.9c7.5-0.9,7.9-11.9,0-12c-11.8-0.2-23.4,1.6-34.5,5.3C21.8,13.3,25,24.9,32.3,22.4L32.3,22.4z"/>
		</g>
	</g>
	<g class="st1">
		<g>
			<path d="M13.2,17.2c-2,0.8-13.6,3.3-14.6-0.2c-0.4-1.5,2.7-4.5,3.5-5.6c1.6-2.2,2.5-4.5,3.5-7C4.8,5.6,3.8,6.7,2.9,7.9
				c0.2-0.1,0.5-0.3,0.7-0.4C1.2,7.2-1.2,6.9-3.7,6.6C-4.5,4.8-4.8,5-4.3,7c0.1,1.1,0.3,2.2,0.4,3.2c0.3,2.1,0.7,4.2,1.5,6.2
				c1.3,3.7,3.4,7,6.3,9.5c5.8,5.1,14.3-3.4,8.5-8.5c-3-2.6-4-5.8-4.6-9.7c-0.5-3.4,0.1-7.4-3-9.8C2.7-3.5,0-4.3-2.5-2.8
				c-2.3,1.4-2.9,3.1-4,5.4c-1.1,2.2-2.9,4-4.2,6c-2.7,4.2-3.7,9.6-1.2,14.1c5.1,9,19.6,9.5,28.2,6c3-1.2,5.1-4,4.2-7.4
				C19.8,18.5,16.2,16,13.2,17.2L13.2,17.2z"/>
		</g>
	</g>
	<g class="st1">
		<g>
			<path d="M-0.9,6.9c3.4-7,13.6-5.3,20-5.3c7.9,0,15.8-0.2,23.7-0.1c8.2,0.1,16.5,0.4,24.5,2.4c2.8,0.7,8.7,1.8,10.1,4.3
				c1.2,2.1,0.6,7.3-0.9,9.1c-2,2.5-6.4,2.6-9.3,2.9c-4.5,0.3-9,0.1-13.5-0.1c-8.8-0.3-17.2,0.7-25.9,1.5
				c-8.8,0.8-17.2-0.8-25.7-2.9c-2.4-0.6-6.1-0.9-5.7-4c0.4-3.2,5.2-5.4,7.6-6.8C10.7,3.9,4.7-6.5-2-2.5C-8.7,1.5-15.7,7-15.6,15.7
				c0.1,8.2,6.8,12.5,14,14.3c9.3,2.4,19,4.3,28.6,3.6c4.8-0.4,9.5-1.2,14.3-1.6c5.5-0.4,11,0,16.4,0.1C66,32.5,76,32.8,83,27.7
				c6.9-5,7.4-13.4,6.3-21.2C87.9-2.8,78.8-5.6,70.6-7.7c-8.7-2.2-17.8-2.8-26.8-2.9c-10.6-0.1-21.2-0.1-31.8,0.1
				C2.9-10.2-6.9-8.1-11.2,0.8C-14.6,7.7-4.3,13.8-0.9,6.9L-0.9,6.9z"/>
		</g>
	</g>
</g>
<g id="Layer_1">
	<g>
		<path class="st2" d="M0,1.4c0-0.7,0.6-1.3,1.3-1.3h7.2c5.1,0,8.4,2.7,8.4,7.1v0.1c0,4.9-4.1,7.4-8.9,7.4H2.5v6.8
			c0,0.7-0.6,1.3-1.3,1.3c-0.7,0-1.3-0.6-1.3-1.3V1.4z M8.1,12.4c3.7,0,6.2-2,6.2-5V7.4c0-3.2-2.4-4.9-6.1-4.9H2.5v9.9H8.1z"/>
		<path class="st2" d="M21.7,1.3C21.7,0.6,22.3,0,23,0c0.7,0,1.3,0.6,1.3,1.3v20.3c0,0.7-0.6,1.3-1.3,1.3c-0.7,0-1.3-0.6-1.3-1.3
			L21.7,1.3L21.7,1.3z"/>
		<path class="st2" d="M30.9,1.3c0-0.7,0.6-1.3,1.3-1.3h0.4c0.6,0,0.9,0.3,1.3,0.7l13.7,17.4v-17C47.5,0.6,48,0,48.7,0
			c0.7,0,1.2,0.6,1.2,1.3v20.3c0,0.7-0.5,1.2-1.2,1.2h-0.1c-0.5,0-0.9-0.3-1.3-0.8l-14-17.9v17.5c0,0.7-0.5,1.3-1.3,1.3
			c-0.7,0-1.2-0.6-1.2-1.3V1.3z"/>
		<path class="st2" d="M56.3,1.3c0-0.7,0.6-1.3,1.3-1.3c0.7,0,1.3,0.6,1.3,1.3v12.3L71.7,0.5C72,0.2,72.3,0,72.7,0
			c0.7,0,1.2,0.6,1.2,1.3c0,0.4-0.2,0.6-0.4,0.9l-8,7.9l8.6,10.6c0.2,0.3,0.4,0.5,0.4,0.9c0,0.7-0.6,1.3-1.3,1.3
			c-0.5,0-0.8-0.3-1-0.6l-8.4-10.5l-4.9,4.9v4.9c0,0.7-0.6,1.3-1.3,1.3c-0.7,0-1.3-0.6-1.3-1.3L56.3,1.3L56.3,1.3z"/>
	</g>
</g>
</svg>
